<svg
  width="480"
  height="180"
  viewBox="0 0 480 180"
  xmlns="http://www.w3.org/2000/svg"
>
  <g fill="none" fill-rule="evenodd">
    <path
      d="M404.943 48.959l-58.225.223c-4.714.018-6.77-6.079-2.921-8.803l.162-.114c5.48-3.798 12.69-3.482 12.69-3.482s.95-20.434 20.348-20.508c9.59-.038 17.402 16.329 17.402 16.329s13.046-.05 15.243 10.243c.666 3.118-1.512 6.1-4.7 6.112"
      fill="#FFF"
    ></path>
    <path
      d="M404.943 48.959l-58.225.223c-4.714.018-6.77-6.079-2.921-8.803l.162-.114c5.48-3.798 12.69-3.482 12.69-3.482s.95-20.434 20.348-20.508c9.59-.038 17.402 16.329 17.402 16.329s13.046-.05 15.243 10.243c.666 3.118-1.512 6.1-4.7 6.112z"
      stroke="#E8E9EA"
      stroke-linecap="round"
      stroke-linejoin="round"
    ></path>
    <path
      d="M6.477 81.292l78.245.3c6.335.024 9.098-8.169 3.927-11.83a22.97 22.97 0 0 0-.22-.153c-7.361-5.104-17.051-4.68-17.051-4.68s-1.279-27.561-27.345-27.561c-18.433 0-23.387 21.944-23.387 21.944S3.116 59.245.161 73.078c-.894 4.19 2.032 8.197 6.316 8.214"
      fill="#FFF"
    ></path>
    <path
      d="M6.477 81.292l78.245.3c6.335.024 9.098-8.169 3.927-11.83a22.97 22.97 0 0 0-.22-.153c-7.361-5.104-17.051-4.68-17.051-4.68s-1.279-27.561-27.345-27.561c-18.433 0-23.387 21.944-23.387 21.944S3.116 59.245.161 73.078c-.894 4.19 2.032 8.197 6.316 8.214z"
      stroke="#E8E9EA"
      stroke-linecap="round"
      stroke-linejoin="round"
    ></path>
    <path
      d="M237.684 19.74l30.81-.119c2.755-.01 3.928-3.581 1.668-5.155l-.096-.066c-3.218-2.195-7.43-1.978-7.43-1.978S261.99.487 250.656.53c-10.246.04-14.293 10.113-15.746 15.66-.472 1.802.911 3.558 2.774 3.55"
      fill="#FFF"
    ></path>
    <path
      d="M237.684 19.74l30.81-.119c2.755-.01 3.928-3.581 1.668-5.155l-.096-.066c-3.218-2.195-7.43-1.978-7.43-1.978S261.99.487 250.656.53c-10.246.04-14.293 10.113-15.746 15.66-.472 1.802.911 3.558 2.774 3.55z"
      stroke="#E8E9EA"
      stroke-linecap="round"
      stroke-linejoin="round"
    ></path>
    <path
      d="M122.76 121.93l105.516.387c9.905.037 9.48-8.122 6.255-10.976-3.305-2.925-9.862-1.767-9.862-1.767s-1.93-5.494-8.34-8.189c-5.672-2.383-11.626-1.28-11.626-1.28s.014-3.766-3.611-6.898c-3.626-3.132-8.475-2.846-8.475-2.846s-3.257-20.775-25.531-20.856c-22.273-.082-24.92 19.458-24.92 19.458s-5-.018-8.65 3.303c-3.648 3.321-4.117 7.108-4.117 7.108s-12.156-1.684-15.79 8.796c-2.166 6.246 2.21 13.735 9.15 13.76"
      fill="#FFF"
    ></path>
    <path
      d="M122.76 121.93l105.516.387c9.905.037 9.48-8.122 6.255-10.976-3.305-2.925-9.862-1.767-9.862-1.767s-1.93-5.494-8.34-8.189c-5.672-2.383-11.626-1.28-11.626-1.28s.014-3.766-3.611-6.898c-3.626-3.132-8.475-2.846-8.475-2.846s-3.257-20.775-25.531-20.856c-22.273-.082-24.92 19.458-24.92 19.458s-5-.018-8.65 3.303c-3.648 3.321-4.117 7.108-4.117 7.108s-12.156-1.684-15.79 8.796c-2.166 6.246 2.21 13.735 9.15 13.76z"
      stroke="#E8E9EA"
      stroke-linecap="round"
      stroke-linejoin="round"
    ></path>
    <path
      d="M444.42 106.296l32.711.126c2.65.01 3.804-3.415 1.642-4.945l-.091-.064c-3.079-2.135-7.13-1.957-7.13-1.957s-.534-11.48-11.431-11.522c-5.388-.02-9.777 9.174-9.777 9.174s-7.33-.028-8.564 5.754c-.374 1.753.85 3.427 2.64 3.434"
      fill="#FFF"
    ></path>
    <path
      d="M444.42 106.296l32.711.126c2.65.01 3.804-3.415 1.642-4.945l-.091-.064c-3.079-2.135-7.13-1.957-7.13-1.957s-.534-11.48-11.431-11.522c-5.388-.02-9.777 9.174-9.777 9.174s-7.33-.028-8.564 5.754c-.374 1.753.85 3.427 2.64 3.434z"
      stroke="#E8E9EA"
      stroke-linecap="round"
      stroke-linejoin="round"
    ></path>
    <path
      d="M223.095 173.672h-9.87c-3.856 0-6.983-3.167-6.983-7.072v-10.364l-1.688-5.635c10.458.045 25.131.229 27.212 0l-1.687 5.635V166.6c0 3.905-3.127 7.072-6.984 7.072"
      fill="#FFF"
    ></path>
    <path
      d="M223.095 173.672h-9.87c-3.856 0-6.983-3.167-6.983-7.072v-10.364l-1.688-5.635c10.458.045 25.131.229 27.212 0l-1.687 5.635V166.6c0 3.905-3.127 7.072-6.984 7.072z"
      stroke="#E8E9EA"
      stroke-linecap="round"
      stroke-linejoin="round"
    ></path>
    <path d="M218.16 135.872v14.253" fill="#FFF"></path>
    <path
      d="M218.16 135.872v14.253"
      stroke="#E8E9EA"
      stroke-linecap="round"
      stroke-linejoin="round"
    ></path>
    <path d="M203.493 136.417l3.182 14.846" fill="#FFF"></path>
    <path
      d="M203.493 136.417l3.182 14.846"
      stroke="#E8E9EA"
      stroke-linecap="round"
      stroke-linejoin="round"
    ></path>
    <path d="M233.677 136.417l-3.604 14.846" fill="#FFF"></path>
    <path
      d="M233.677 136.417l-3.604 14.846"
      stroke="#E8E9EA"
      stroke-linecap="round"
      stroke-linejoin="round"
    ></path>
    <path d="M226.253 136.325l-2.602 14.655" fill="#FFF"></path>
    <path
      d="M226.253 136.325l-2.602 14.655"
      stroke="#E8E9EA"
      stroke-linecap="round"
      stroke-linejoin="round"
    ></path>
    <path d="M210.291 136.325l2.602 14.655" fill="#FFF"></path>
    <path
      d="M210.291 136.325l2.602 14.655"
      stroke="#E8E9EA"
      stroke-linecap="round"
      stroke-linejoin="round"
    ></path>
    <path d="M206.147 156.38h23.908" fill="#FFF"></path>
    <path
      d="M206.147 156.38h23.908"
      stroke="#E8E9EA"
      stroke-linecap="round"
      stroke-linejoin="round"
    ></path>
    <path
      d="M277.519 61.957c0-32.879-26.319-59.531-58.785-59.531-32.467 0-58.785 26.652-58.785 59.53 0 26.782 41.486 74.485 41.486 74.485h34.597s41.487-47.703 41.487-74.484"
      fill="#FFF"
    ></path>
    <path
      d="M277.519 61.957c0-32.879-26.319-59.531-58.785-59.531-32.467 0-58.785 26.652-58.785 59.53 0 26.782 41.486 74.485 41.486 74.485h34.597s41.487-47.703 41.487-74.484z"
      stroke="#E8E9EA"
      stroke-linecap="round"
      stroke-linejoin="round"
    ></path>
    <path
      d="M256.213 61.957c0-32.879-16.78-59.531-37.48-59.531-20.698 0-37.479 26.652-37.479 59.53 0 26.782 26.451 74.485 26.451 74.485h22.057s26.45-47.703 26.45-74.484"
      fill="#FFF"
    ></path>
    <path
      d="M256.213 61.957c0-32.879-16.78-59.531-37.48-59.531-20.698 0-37.479 26.652-37.479 59.53 0 26.782 26.451 74.485 26.451 74.485h22.057s26.45-47.703 26.45-74.484z"
      stroke="#E8E9EA"
      stroke-linecap="round"
      stroke-linejoin="round"
    ></path>
    <path
      d="M231.656 61.957c0-32.879-5.785-59.531-12.922-59.531-7.137 0-12.923 26.652-12.923 59.53 0 26.782 9.12 74.485 9.12 74.485h7.605s9.12-47.703 9.12-74.484"
      fill="#FFF"
    ></path>
    <path
      d="M231.656 61.957c0-32.879-5.785-59.531-12.922-59.531-7.137 0-12.923 26.652-12.923 59.53 0 26.782 9.12 74.485 9.12 74.485h7.605s9.12-47.703 9.12-74.484z"
      stroke="#E8E9EA"
      stroke-linecap="round"
      stroke-linejoin="round"
    ></path>
    <path
      d="M239.742 106.137c-16.521-.063-8.69-26.235 12.215-19.896 1.297-36.376 60.688-62.767 85.015-13.604 6.952-5.459 22.477 4.962 18.996 14.004 7.697.686 13.751 1.6 18.459 2.796 10.87 2.766 8.662 17.128-2.555 16.984l-132.13-.284z"
      fill="#FFF"
    ></path>
    <path
      d="M239.742 106.137c-16.521-.063-8.69-26.235 12.215-19.896 1.297-36.376 60.688-62.767 85.015-13.604 6.952-5.459 22.477 4.962 18.996 14.004 7.697.686 13.751 1.6 18.459 2.796 10.87 2.766 8.662 17.128-2.555 16.984l-132.13-.284z"
      stroke="#E8E9EA"
      stroke-linecap="round"
      stroke-linejoin="round"
    ></path>
    <path d="M300.857 113.2h41.437" fill="#FFF"></path>
    <path
      d="M300.857 113.2h41.437"
      stroke="#E8E9EA"
      stroke-linecap="round"
      stroke-linejoin="round"
    ></path>
    <path d="M288.129 113.2h-8.113l.157-1.592" fill="#FFF"></path>
    <path
      d="M288.129 113.2h-8.113l.157-1.592"
      stroke="#E8E9EA"
      stroke-linecap="round"
      stroke-linejoin="round"
    ></path>
    <path d="M153.682 129.909h11.934" fill="#FFF"></path>
    <path
      d="M153.682 129.909h11.934"
      stroke="#E8E9EA"
      stroke-linecap="round"
      stroke-linejoin="round"
    ></path>
    <path d="M55.83 90.124h9.547" fill="#FFF"></path>
    <path
      d="M55.83 90.124h9.547"
      stroke="#E8E9EA"
      stroke-linecap="round"
      stroke-linejoin="round"
    ></path>
    <path d="M120.27 78.984h12.038" fill="#FFF"></path>
    <path
      d="M120.27 78.984h12.038"
      stroke="#E8E9EA"
      stroke-linecap="round"
      stroke-linejoin="round"
    ></path>
    <path d="M94.812 110.812h11.138" fill="#FFF"></path>
    <path
      d="M94.812 110.812h11.138"
      stroke="#E8E9EA"
      stroke-linecap="round"
      stroke-linejoin="round"
    ></path>
    <path d="M84.47 110.812h-5.625" fill="#FFF"></path>
    <path
      d="M84.47 110.812h-5.625"
      stroke="#E8E9EA"
      stroke-linecap="round"
      stroke-linejoin="round"
    ></path>
    <path d="M383.444 56.536h17.575" fill="#FFF"></path>
    <path
      d="M383.444 56.536h17.575"
      stroke="#E8E9EA"
      stroke-linecap="round"
      stroke-linejoin="round"
    ></path>
    <path d="M284.15 32.834h8.788" fill="#FFF"></path>
    <path
      d="M284.15 32.834h8.788"
      stroke="#E8E9EA"
      stroke-linecap="round"
      stroke-linejoin="round"
    ></path>
    <path d="M323.928 121.156h7.204" fill="#FFF"></path>
    <path
      d="M323.928 121.156h7.204"
      stroke="#E8E9EA"
      stroke-linecap="round"
      stroke-linejoin="round"
    ></path>
  </g>
</svg>
