<svg width="480" height="180" viewBox="0 0 480 180" fill="none" xmlns="http://www.w3.org/2000/svg">
<g clip-path="url(#clip0_1104_56)">
<path fill-rule="evenodd" clip-rule="evenodd" d="M404.943 48.959L346.718 49.182C342.004 49.2 339.948 43.103 343.797 40.379L343.959 40.265C349.439 36.467 356.649 36.783 356.649 36.783C356.649 36.783 357.599 16.349 376.997 16.275C386.587 16.237 394.399 32.604 394.399 32.604C394.399 32.604 407.445 32.554 409.642 42.847C410.308 45.965 408.13 48.947 404.942 48.959" fill="#141414"/>
<path fill-rule="evenodd" clip-rule="evenodd" d="M404.943 48.959L346.718 49.182C342.004 49.2 339.948 43.103 343.797 40.379L343.959 40.265C349.439 36.467 356.649 36.783 356.649 36.783C356.649 36.783 357.599 16.349 376.997 16.275C386.587 16.237 394.399 32.604 394.399 32.604C394.399 32.604 407.445 32.554 409.642 42.847C410.308 45.965 408.13 48.947 404.942 48.959H404.943Z" fill="#141414" stroke="#232323" stroke-linecap="round" stroke-linejoin="round"/>
<path fill-rule="evenodd" clip-rule="evenodd" d="M6.4771 81.2919L84.7221 81.5919C91.0571 81.6159 93.8201 73.4229 88.6491 69.7619C88.5761 69.7105 88.5027 69.6595 88.4291 69.6089C81.0681 64.5049 71.3781 64.9289 71.3781 64.9289C71.3781 64.9289 70.0991 37.3679 44.0331 37.3679C25.6001 37.3679 20.6461 59.3119 20.6461 59.3119C20.6461 59.3119 3.1161 59.2449 0.161104 73.0779C-0.732896 77.2679 2.1931 81.2749 6.4771 81.2919Z" fill="#141414"/>
<path fill-rule="evenodd" clip-rule="evenodd" d="M6.4771 81.2919L84.7221 81.5919C91.0571 81.6159 93.8201 73.4229 88.6491 69.7619C88.5761 69.7105 88.5027 69.6595 88.4291 69.6089C81.0681 64.5049 71.3781 64.9289 71.3781 64.9289C71.3781 64.9289 70.0991 37.3679 44.0331 37.3679C25.6001 37.3679 20.6461 59.3119 20.6461 59.3119C20.6461 59.3119 3.1161 59.2449 0.161104 73.0779C-0.732896 77.2679 2.1931 81.2749 6.4771 81.2919Z" fill="#141414" stroke="#232323" stroke-linecap="round" stroke-linejoin="round"/>
<path fill-rule="evenodd" clip-rule="evenodd" d="M237.685 19.7399L268.494 19.6209C271.249 19.6109 272.422 16.0399 270.162 14.4659L270.067 14.3999C266.849 12.2049 262.636 12.4219 262.636 12.4219C262.636 12.4219 261.991 0.486901 250.657 0.529901C240.411 0.569901 236.364 10.6429 234.911 16.1899C234.439 17.9919 235.822 19.7479 237.685 19.7399Z" fill="#141414"/>
<path fill-rule="evenodd" clip-rule="evenodd" d="M237.685 19.7399L268.494 19.6209C271.249 19.6109 272.422 16.0399 270.162 14.4659L270.067 14.3999C266.849 12.2049 262.636 12.4219 262.636 12.4219C262.636 12.4219 261.991 0.486901 250.657 0.529901C240.411 0.569901 236.364 10.6429 234.911 16.1899C234.439 17.9919 235.822 19.7479 237.685 19.7399Z" fill="#141414" stroke="#232323" stroke-linecap="round" stroke-linejoin="round"/>
<path fill-rule="evenodd" clip-rule="evenodd" d="M122.76 121.93L228.276 122.317C238.181 122.354 237.756 114.195 234.531 111.341C231.226 108.416 224.669 109.574 224.669 109.574C224.669 109.574 222.739 104.08 216.329 101.385C210.657 99.0019 204.703 100.105 204.703 100.105C204.703 100.105 204.717 96.3389 201.092 93.2069C197.466 90.0749 192.617 90.3609 192.617 90.3609C192.617 90.3609 189.36 69.5859 167.086 69.5049C144.813 69.4229 142.166 88.9629 142.166 88.9629C142.166 88.9629 137.166 88.9449 133.516 92.2659C129.868 95.5869 129.399 99.3739 129.399 99.3739C129.399 99.3739 117.243 97.6899 113.609 108.17C111.443 114.416 115.82 121.905 122.76 121.93Z" fill="#141414"/>
<path fill-rule="evenodd" clip-rule="evenodd" d="M122.76 121.93L228.276 122.317C238.181 122.354 237.756 114.195 234.531 111.341C231.226 108.416 224.669 109.574 224.669 109.574C224.669 109.574 222.739 104.08 216.329 101.385C210.657 99.0019 204.703 100.105 204.703 100.105C204.703 100.105 204.717 96.3389 201.092 93.2069C197.466 90.0749 192.617 90.3609 192.617 90.3609C192.617 90.3609 189.36 69.5859 167.086 69.5049C144.813 69.4229 142.166 88.9629 142.166 88.9629C142.166 88.9629 137.166 88.9449 133.516 92.2659C129.868 95.5869 129.399 99.3739 129.399 99.3739C129.399 99.3739 117.243 97.6899 113.609 108.17C111.443 114.416 115.82 121.905 122.76 121.93Z" fill="#141414" stroke="#232323" stroke-linecap="round" stroke-linejoin="round"/>
<path fill-rule="evenodd" clip-rule="evenodd" d="M444.42 106.296L477.131 106.422C479.781 106.432 480.935 103.007 478.773 101.477L478.682 101.413C475.603 99.2779 471.552 99.4559 471.552 99.4559C471.552 99.4559 471.018 87.9759 460.121 87.9339C454.733 87.9139 450.344 97.1079 450.344 97.1079C450.344 97.1079 443.014 97.0799 441.78 102.862C441.406 104.615 442.63 106.289 444.42 106.296Z" fill="#141414"/>
<path fill-rule="evenodd" clip-rule="evenodd" d="M444.42 106.296L477.131 106.422C479.781 106.432 480.935 103.007 478.773 101.477L478.682 101.413C475.603 99.2779 471.552 99.4559 471.552 99.4559C471.552 99.4559 471.018 87.9759 460.121 87.9339C454.733 87.9139 450.344 97.1079 450.344 97.1079C450.344 97.1079 443.014 97.0799 441.78 102.862C441.406 104.615 442.63 106.289 444.42 106.296Z" fill="#141414" stroke="#232323" stroke-linecap="round" stroke-linejoin="round"/>
<path fill-rule="evenodd" clip-rule="evenodd" d="M223.095 173.672H213.225C209.369 173.672 206.242 170.505 206.242 166.6V156.236L204.554 150.601C215.012 150.646 229.685 150.83 231.766 150.601L230.079 156.236V166.6C230.079 170.505 226.952 173.672 223.095 173.672Z" fill="#141414"/>
<path fill-rule="evenodd" clip-rule="evenodd" d="M223.095 173.672H213.225C209.369 173.672 206.242 170.505 206.242 166.6V156.236L204.554 150.601C215.012 150.646 229.685 150.83 231.766 150.601L230.079 156.236V166.6C230.079 170.505 226.952 173.672 223.095 173.672Z" fill="#141414" stroke="#232323" stroke-linecap="round" stroke-linejoin="round"/>
<path fill-rule="evenodd" clip-rule="evenodd" d="M218.16 135.872V150.125Z" fill="#141414"/>
<path d="M218.16 135.872V150.125" stroke="#232323" stroke-linecap="round" stroke-linejoin="round"/>
<path fill-rule="evenodd" clip-rule="evenodd" d="M203.493 136.417L206.675 151.263Z" fill="#141414"/>
<path fill-rule="evenodd" clip-rule="evenodd" d="M203.493 136.417L206.675 151.263Z" fill="#141414"/>
<path d="M203.493 136.417L206.675 151.263" stroke="#232323" stroke-linecap="round" stroke-linejoin="round"/>
<path fill-rule="evenodd" clip-rule="evenodd" d="M233.677 136.417L230.073 151.263Z" fill="#141414"/>
<path fill-rule="evenodd" clip-rule="evenodd" d="M233.677 136.417L230.073 151.263Z" fill="#141414"/>
<path d="M233.677 136.417L230.073 151.263" stroke="#232323" stroke-linecap="round" stroke-linejoin="round"/>
<path fill-rule="evenodd" clip-rule="evenodd" d="M226.253 136.325L223.651 150.98Z" fill="#141414"/>
<path fill-rule="evenodd" clip-rule="evenodd" d="M226.253 136.325L223.651 150.98Z" fill="#141414"/>
<path d="M226.253 136.325L223.651 150.98" stroke="#232323" stroke-linecap="round" stroke-linejoin="round"/>
<path fill-rule="evenodd" clip-rule="evenodd" d="M210.291 136.325L212.893 150.98Z" fill="#141414"/>
<path fill-rule="evenodd" clip-rule="evenodd" d="M210.291 136.325L212.893 150.98Z" fill="#141414"/>
<path d="M210.291 136.325L212.893 150.98" stroke="#232323" stroke-linecap="round" stroke-linejoin="round"/>
<path fill-rule="evenodd" clip-rule="evenodd" d="M206.147 156.38H230.055Z" fill="#141414"/>
<path d="M206.147 156.38H230.055" stroke="#232323" stroke-linecap="round" stroke-linejoin="round"/>
<path fill-rule="evenodd" clip-rule="evenodd" d="M277.519 61.9568C277.519 29.0778 251.2 2.42578 218.734 2.42578C186.267 2.42578 159.949 29.0778 159.949 61.9558C159.949 88.7378 201.435 136.441 201.435 136.441H236.032C236.032 136.441 277.519 88.7378 277.519 61.9568Z" fill="#141414"/>
<path fill-rule="evenodd" clip-rule="evenodd" d="M277.519 61.9568C277.519 29.0778 251.2 2.42578 218.734 2.42578C186.267 2.42578 159.949 29.0778 159.949 61.9558C159.949 88.7378 201.435 136.441 201.435 136.441H236.032C236.032 136.441 277.519 88.7378 277.519 61.9568Z" fill="#141414" stroke="#232323" stroke-linecap="round" stroke-linejoin="round"/>
<path fill-rule="evenodd" clip-rule="evenodd" d="M256.213 61.9568C256.213 29.0778 239.433 2.42578 218.733 2.42578C198.035 2.42578 181.254 29.0778 181.254 61.9558C181.254 88.7378 207.705 136.441 207.705 136.441H229.762C229.762 136.441 256.212 88.7378 256.212 61.9568" fill="#141414"/>
<path fill-rule="evenodd" clip-rule="evenodd" d="M256.213 61.9568C256.213 29.0778 239.433 2.42578 218.733 2.42578C198.035 2.42578 181.254 29.0778 181.254 61.9558C181.254 88.7378 207.705 136.441 207.705 136.441H229.762C229.762 136.441 256.212 88.7378 256.212 61.9568H256.213Z" fill="#141414" stroke="#232323" stroke-linecap="round" stroke-linejoin="round"/>
<path fill-rule="evenodd" clip-rule="evenodd" d="M231.657 61.9568C231.657 29.0778 225.872 2.42578 218.735 2.42578C211.598 2.42578 205.812 29.0778 205.812 61.9558C205.812 88.7378 214.932 136.441 214.932 136.441H222.537C222.537 136.441 231.657 88.7378 231.657 61.9568Z" fill="#141414"/>
<path fill-rule="evenodd" clip-rule="evenodd" d="M231.657 61.9568C231.657 29.0778 225.872 2.42578 218.735 2.42578C211.598 2.42578 205.812 29.0778 205.812 61.9558C205.812 88.7378 214.932 136.441 214.932 136.441H222.537C222.537 136.441 231.657 88.7378 231.657 61.9568Z" fill="#141414" stroke="#232323" stroke-linecap="round" stroke-linejoin="round"/>
<path fill-rule="evenodd" clip-rule="evenodd" d="M239.742 106.137C223.221 106.074 231.052 79.9019 251.957 86.2409C253.254 49.8649 312.645 23.4739 336.972 72.6369C343.924 67.1779 359.449 77.5989 355.968 86.6409C363.665 87.3269 369.719 88.2409 374.427 89.4369C385.297 92.2029 383.089 106.565 371.872 106.421L239.742 106.137Z" fill="#141414"/>
<path fill-rule="evenodd" clip-rule="evenodd" d="M239.742 106.137C223.221 106.074 231.052 79.9019 251.957 86.2409C253.254 49.8649 312.645 23.4739 336.972 72.6369C343.924 67.1779 359.449 77.5989 355.968 86.6409C363.665 87.3269 369.719 88.2409 374.427 89.4369C385.297 92.2029 383.089 106.565 371.872 106.421L239.742 106.137Z" fill="#141414" stroke="#232323" stroke-linecap="round" stroke-linejoin="round"/>
<path fill-rule="evenodd" clip-rule="evenodd" d="M300.857 113.2H342.294Z" fill="#141414"/>
<path d="M300.857 113.2H342.294" stroke="#232323" stroke-linecap="round" stroke-linejoin="round"/>
<path fill-rule="evenodd" clip-rule="evenodd" d="M288.129 113.2H280.016L280.173 111.608" fill="#141414"/>
<path fill-rule="evenodd" clip-rule="evenodd" d="M288.129 113.2H280.016L280.173 111.608" fill="#141414"/>
<path d="M288.129 113.2H280.016L280.173 111.608" stroke="#232323" stroke-linecap="round" stroke-linejoin="round"/>
<path fill-rule="evenodd" clip-rule="evenodd" d="M153.682 129.909H165.616Z" fill="#141414"/>
<path d="M153.682 129.909H165.616" stroke="#232323" stroke-linecap="round" stroke-linejoin="round"/>
<path fill-rule="evenodd" clip-rule="evenodd" d="M55.8301 90.124H65.3771Z" fill="#141414"/>
<path d="M55.8301 90.124H65.3771" stroke="#232323" stroke-linecap="round" stroke-linejoin="round"/>
<path fill-rule="evenodd" clip-rule="evenodd" d="M120.271 78.9839H132.309Z" fill="#141414"/>
<path d="M120.271 78.9839H132.309" stroke="#232323" stroke-linecap="round" stroke-linejoin="round"/>
<path fill-rule="evenodd" clip-rule="evenodd" d="M94.8125 110.812H105.951Z" fill="#141414"/>
<path d="M94.8125 110.812H105.951" stroke="#232323" stroke-linecap="round" stroke-linejoin="round"/>
<path fill-rule="evenodd" clip-rule="evenodd" d="M84.4697 110.812H78.8447Z" fill="#141414"/>
<path d="M84.4697 110.812H78.8447" stroke="#232323" stroke-linecap="round" stroke-linejoin="round"/>
<path fill-rule="evenodd" clip-rule="evenodd" d="M383.444 56.5359H401.019Z" fill="#141414"/>
<path d="M383.444 56.5359H401.019" stroke="#232323" stroke-linecap="round" stroke-linejoin="round"/>
<path fill-rule="evenodd" clip-rule="evenodd" d="M284.15 32.834H292.938Z" fill="#141414"/>
<path d="M284.15 32.834H292.938" stroke="#232323" stroke-linecap="round" stroke-linejoin="round"/>
<path fill-rule="evenodd" clip-rule="evenodd" d="M323.928 121.156H331.132Z" fill="#141414"/>
<path d="M323.928 121.156H331.132" stroke="#232323" stroke-linecap="round" stroke-linejoin="round"/>
</g>
<defs>
<clipPath id="clip0_1104_56">
<rect width="480" height="180" fill="white"/>
</clipPath>
</defs>
</svg>
