<svg width="675" height="120" viewBox="0 0 675 120" fill="none" xmlns="http://www.w3.org/2000/svg">
<g clip-path="url(#clip0_1104_110)">
<path fill-rule="evenodd" clip-rule="evenodd" d="M449.99 91.052V106.446H458.264V81.04H461.565C465.989 81.04 469.587 77.446 469.587 73.03V58.886C469.587 58.3433 469.479 57.8059 469.271 57.3046C469.063 56.8033 468.758 56.3479 468.374 55.9644C467.99 55.5809 467.534 55.2768 467.033 55.0695C466.531 54.8621 465.994 54.7556 465.451 54.756C464.908 54.7556 464.371 54.8621 463.869 55.0695C463.368 55.2768 462.912 55.5809 462.528 55.9644C462.144 56.3479 461.839 56.8033 461.631 57.3046C461.423 57.8059 461.315 58.3433 461.315 58.886V72.779H458.264V54.13C458.264 53.5872 458.156 53.0497 457.948 52.5484C457.74 52.047 457.435 51.5916 457.051 51.2081C456.667 50.8245 456.211 50.5205 455.709 50.3132C455.207 50.1059 454.67 49.9995 454.127 50C453.584 49.9996 453.047 50.1061 452.545 50.3135C452.044 50.5208 451.588 50.8249 451.204 51.2084C450.82 51.5919 450.515 52.0473 450.307 52.5486C450.099 53.0499 449.991 53.5872 449.991 54.13V82.791H446.774C446.641 82.791 446.514 82.7384 446.42 82.6446C446.326 82.5509 446.273 82.4237 446.273 82.291V74.155C446.273 71.875 444.421 70.025 442.137 70.025C441.041 70.0242 439.989 70.4589 439.213 71.2333C438.437 72.0078 438.001 73.0588 438 74.155V82.291C438 87.121 441.936 91.051 446.774 91.051H449.991L449.99 91.052Z" fill="#141414"/>
<path fill-rule="evenodd" clip-rule="evenodd" d="M449.99 91.052V106.446H458.264V81.04H461.565C465.989 81.04 469.587 77.446 469.587 73.03V58.886C469.587 58.3433 469.479 57.8059 469.271 57.3046C469.063 56.8033 468.758 56.3479 468.374 55.9644C467.99 55.5809 467.534 55.2768 467.033 55.0695C466.531 54.8621 465.994 54.7556 465.451 54.756C464.908 54.7556 464.371 54.8621 463.869 55.0695C463.368 55.2768 462.912 55.5809 462.528 55.9644C462.144 56.3479 461.839 56.8033 461.631 57.3046C461.423 57.8059 461.315 58.3433 461.315 58.886V72.779H458.264V54.13C458.264 53.5872 458.156 53.0497 457.948 52.5484C457.74 52.047 457.435 51.5916 457.051 51.2081C456.667 50.8245 456.211 50.5205 455.709 50.3132C455.207 50.1059 454.67 49.9995 454.127 50C453.584 49.9996 453.047 50.1061 452.545 50.3135C452.044 50.5208 451.588 50.8249 451.204 51.2084C450.82 51.5919 450.515 52.0473 450.307 52.5486C450.099 53.0499 449.991 53.5872 449.991 54.13V82.791H446.774C446.641 82.791 446.514 82.7384 446.42 82.6446C446.326 82.5509 446.273 82.4237 446.273 82.291V74.155C446.273 71.875 444.421 70.025 442.137 70.025C441.041 70.0242 439.989 70.4589 439.213 71.2333C438.437 72.0078 438.001 73.0588 438 74.155V82.291C438 87.121 441.936 91.051 446.774 91.051H449.991L449.99 91.052Z" stroke="#232323" stroke-linecap="round" stroke-linejoin="round"/>
<path d="M454 59V61.91" stroke="#232323" stroke-linecap="round" stroke-linejoin="round"/>
<path d="M465 63V65.922" stroke="#232323" stroke-linecap="round" stroke-linejoin="round"/>
<path d="M465 71V73.117" stroke="#232323" stroke-linecap="round" stroke-linejoin="round"/>
<path fill-rule="evenodd" clip-rule="evenodd" d="M454 85H454.265V87.91" fill="#141414"/>
<path d="M454 85H454.265V87.91" stroke="#232323" stroke-linecap="round" stroke-linejoin="round"/>
<path d="M441 79V80.852" stroke="#232323" stroke-linecap="round" stroke-linejoin="round"/>
<path fill-rule="evenodd" clip-rule="evenodd" d="M437 119.78C437 119.78 477.847 92.3892 535.241 92.0042C592.896 91.6172 638.765 118.305 642.991 119.712L437 119.78Z" fill="#141414"/>
<path fill-rule="evenodd" clip-rule="evenodd" d="M437 119.78C437 119.78 477.847 92.3892 535.241 92.0042C592.896 91.6172 638.765 118.305 642.991 119.712L437 119.78Z" stroke="#232323" stroke-linecap="round" stroke-linejoin="round"/>
<path fill-rule="evenodd" clip-rule="evenodd" d="M193.662 128.156C193.662 128.156 152.816 100 95.421 100C56.464 100 19.038 122.688 -33.274 122.688C-71.42 122.688 -92.996 114.222 -136.084 114.222C-187.751 114.222 -227.38 127.705 -229 128.244L193.662 128.156Z" fill="#141414"/>
<path fill-rule="evenodd" clip-rule="evenodd" d="M193.662 128.156C193.662 128.156 152.816 100 95.421 100C56.464 100 19.038 122.688 -33.274 122.688C-71.42 122.688 -92.996 114.222 -136.084 114.222C-187.751 114.222 -227.38 127.705 -229 128.244L193.662 128.156Z" stroke="#232323" stroke-linecap="round" stroke-linejoin="round"/>
<path fill-rule="evenodd" clip-rule="evenodd" d="M127 120.156C127 120.156 167.846 92 225.241 92C264.198 92 301.624 114.688 353.936 114.688C392.082 114.688 413.658 106.222 456.746 106.222C508.413 106.222 548.043 119.705 549.662 120.244L127 120.156Z" fill="#141414"/>
<path fill-rule="evenodd" clip-rule="evenodd" d="M127 120.156C127 120.156 167.846 92 225.241 92C264.198 92 301.624 114.688 353.936 114.688C392.082 114.688 413.658 106.222 456.746 106.222C508.413 106.222 548.043 119.705 549.662 120.244L127 120.156Z" stroke="#232323" stroke-linecap="round" stroke-linejoin="round"/>
<path fill-rule="evenodd" clip-rule="evenodd" d="M317.714 3.02905H321.689ZM155.398 35.8061H163.175ZM139.702 84.7401H144.235V120.016H155.893V99.0261H161.076C167.311 99.0261 172.382 93.9631 172.382 87.7381V79.0961C172.382 75.8811 169.772 73.2751 166.552 73.2751C165.007 73.274 163.525 73.8865 162.432 74.978C161.339 76.0694 160.724 77.5503 160.723 79.0951V87.3851H155.893V55.2841C155.893 52.0691 153.283 49.4641 150.064 49.4641C149.299 49.4634 148.541 49.6134 147.834 49.9055C147.127 50.1977 146.485 50.6262 145.944 51.1666C145.402 51.7071 144.973 52.3488 144.679 53.0553C144.386 53.7618 144.235 54.5191 144.234 55.2841V73.0981H139.702C139.515 73.0978 139.336 73.0235 139.203 72.8913C139.071 72.7592 138.996 72.58 138.996 72.3931V60.9281C138.996 57.7131 136.386 55.1081 133.166 55.1081C132.401 55.1074 131.643 55.2574 130.936 55.5495C130.229 55.8417 129.587 56.2702 129.046 56.8106C128.504 57.3511 128.075 57.9928 127.781 58.6993C127.488 59.4058 127.337 60.1631 127.336 60.9281V72.3931C127.336 79.2011 132.884 84.7401 139.702 84.7401Z" fill="#141414"/>
<path fill-rule="evenodd" clip-rule="evenodd" d="M139.702 84.7401H144.235V120.016H155.893V99.0261H161.076C167.311 99.0261 172.382 93.9631 172.382 87.7381V79.0961C172.382 75.8811 169.772 73.2751 166.552 73.2751C165.007 73.2741 163.525 73.8866 162.432 74.978C161.339 76.0695 160.724 77.5504 160.723 79.0951V87.3851H155.893V55.2841C155.893 52.0691 153.283 49.4641 150.064 49.4641C149.299 49.4635 148.541 49.6135 147.834 49.9056C147.127 50.1977 146.485 50.6262 145.944 51.1667C145.402 51.7071 144.973 52.3489 144.679 53.0554C144.386 53.7618 144.235 54.5192 144.234 55.2841V73.0981H139.702C139.515 73.0978 139.336 73.0235 139.203 72.8914C139.071 72.7593 138.996 72.5801 138.996 72.3931V60.9281C138.996 57.7131 136.386 55.1081 133.166 55.1081C132.401 55.1075 131.643 55.2575 130.936 55.5496C130.229 55.8417 129.587 56.2702 129.046 56.8107C128.504 57.3511 128.075 57.9929 127.781 58.6994C127.488 59.4058 127.337 60.1632 127.336 60.9281V72.3931C127.336 79.2011 132.884 84.7401 139.702 84.7401Z" stroke="#232323" stroke-linecap="round" stroke-linejoin="round"/>
<path d="M148.916 58.3701V61.8101" stroke="#232323" stroke-linecap="round" stroke-linejoin="round"/>
<path d="M151.565 71.864V74.509" stroke="#232323" stroke-linecap="round" stroke-linejoin="round"/>
<path d="M149.446 82.9761V85.4161" stroke="#232323" stroke-linecap="round" stroke-linejoin="round"/>
<path d="M131.163 63.6621V66.8371" stroke="#232323" stroke-linecap="round" stroke-linejoin="round"/>
<path d="M134.872 69.4832V72.6572" stroke="#232323" stroke-linecap="round" stroke-linejoin="round"/>
<path d="M165.344 79.5361V83.2501" stroke="#232323" stroke-linecap="round" stroke-linejoin="round"/>
<path d="M168.524 86.6802V88.0032" stroke="#232323" stroke-linecap="round" stroke-linejoin="round"/>
<path fill-rule="evenodd" clip-rule="evenodd" d="M501.365 86.413H505.898V119.573H517.557V108.461H518.055C525.995 108.461 532.455 102.011 532.455 94.081V57.135C532.455 53.92 529.845 51.314 526.626 51.314C525.861 51.3133 525.103 51.4633 524.396 51.7555C523.69 52.0476 523.047 52.4761 522.506 53.0165C521.964 53.557 521.535 54.1988 521.241 54.9052C520.948 55.6117 520.797 56.369 520.796 57.134V94.083C520.796 95.593 519.566 96.821 518.055 96.821H517.557V36.321C517.557 33.107 514.947 30.501 511.727 30.501C510.962 30.5003 510.204 30.6503 509.497 30.9425C508.791 31.2346 508.148 31.6631 507.607 32.2035C507.065 32.744 506.636 33.3858 506.342 34.0922C506.049 34.7987 505.898 35.556 505.897 36.321V74.773H501.365C501.178 74.7727 500.998 74.6982 500.866 74.5659C500.734 74.4336 500.659 74.2541 500.659 74.067V54.488C500.659 51.273 498.049 48.668 494.829 48.668C493.284 48.6669 491.802 49.2795 490.709 50.3709C489.616 51.4623 489.001 52.9433 489 54.488V74.066C489 80.874 494.547 86.413 501.365 86.413Z" fill="#141414"/>
<path fill-rule="evenodd" clip-rule="evenodd" d="M501.365 86.413H505.898V119.573H517.557V108.461H518.055C525.995 108.461 532.455 102.011 532.455 94.081V57.135C532.455 53.92 529.845 51.314 526.626 51.314C525.861 51.3133 525.103 51.4633 524.396 51.7555C523.69 52.0476 523.047 52.4761 522.506 53.0165C521.964 53.557 521.535 54.1988 521.241 54.9052C520.948 55.6117 520.797 56.369 520.796 57.134V94.083C520.796 95.593 519.566 96.821 518.055 96.821H517.557V36.321C517.557 33.107 514.947 30.501 511.727 30.501C510.962 30.5003 510.204 30.6503 509.497 30.9425C508.791 31.2346 508.148 31.6631 507.607 32.2035C507.065 32.744 506.636 33.3858 506.342 34.0922C506.049 34.7987 505.898 35.556 505.897 36.321V74.773H501.365C501.178 74.7727 500.998 74.6982 500.866 74.5659C500.734 74.4336 500.659 74.2541 500.659 74.067V54.488C500.659 51.273 498.049 48.668 494.829 48.668C493.284 48.6669 491.802 49.2795 490.709 50.3709C489.616 51.4623 489.001 52.9433 489 54.488V74.066C489 80.874 494.547 86.413 501.365 86.413Z" stroke="#232323" stroke-linecap="round" stroke-linejoin="round"/>
<path d="M493 58V60.91" stroke="#232323" stroke-linecap="round" stroke-linejoin="round"/>
<path d="M496 67V70.175" stroke="#232323" stroke-linecap="round" stroke-linejoin="round"/>
<path d="M496 55V56.852" stroke="#232323" stroke-linecap="round" stroke-linejoin="round"/>
<path d="M494 74V77.969" stroke="#232323" stroke-linecap="round" stroke-linejoin="round"/>
<path d="M510 43V46.714" stroke="#232323" stroke-linecap="round" stroke-linejoin="round"/>
<path d="M514 36V37.587" stroke="#232323" stroke-linecap="round" stroke-linejoin="round"/>
<path d="M514 54V61.677" stroke="#232323" stroke-linecap="round" stroke-linejoin="round"/>
<path d="M514 75V80.296" stroke="#232323" stroke-linecap="round" stroke-linejoin="round"/>
<path d="M510 65V66.587" stroke="#232323" stroke-linecap="round" stroke-linejoin="round"/>
<path d="M526 64V67.44" stroke="#232323" stroke-linecap="round" stroke-linejoin="round"/>
<path d="M529 74V77.175" stroke="#232323" stroke-linecap="round" stroke-linejoin="round"/>
<path d="M529 90V92.381" stroke="#232323" stroke-linecap="round" stroke-linejoin="round"/>
<path d="M526 81V82.323" stroke="#232323" stroke-linecap="round" stroke-linejoin="round"/>
<path d="M529 58.265V58V59.323M0 119.5H675" stroke="#232323" stroke-linecap="round" stroke-linejoin="round"/>
</g>
<defs>
<clipPath id="clip0_1104_110">
<rect width="675" height="120" fill="white"/>
</clipPath>
</defs>
</svg>
